<svg id="Layer_1" data-name="Layer 1" xmlns="http://www.w3.org/2000/svg" viewBox="0 0 257 256"><defs><style>.cls-1{fill:#7f7f7f;}.cls-2{opacity:0.8;}.cls-3{fill:#fff;}</style></defs><title>icon</title><rect class="cls-1" width="257" height="256"/><rect class="cls-2" x="0.5" y="98" width="256" height="60"/><path class="cls-3" d="M51.11,136.17h-2L59.74,118.5h1.9Z" transform="translate(0.5 0)"/><path class="cls-3" d="M67.56,128.58v-3.73l-2.82,2-1-1.73,3.3-1.61-3.3-1.63,1-1.71,2.82,2V118.5h2v3.74l2.83-2,1,1.7-3.31,1.63,3.31,1.61-1,1.74-2.83-2v3.73Z" transform="translate(0.5 0)"/><path class="cls-3" d="M90.63,135.66,88.69,119h2l1.13,10.15.15,1.69H92l.22-1.69L94,119h2l2,10.56.2,1.61h.05l.13-1.62L99.6,119h1.7l-2,16.67H97.22l-2.15-11.3-.23-1.7H94.8l-.2,1.7-1.93,11.3Z" transform="translate(0.5 0)"/><path class="cls-3" d="M105.66,129.58v6.08h-2.17V119h4.15a9,9,0,0,1,3.73.57,4.06,4.06,0,0,1,1.79,1.68,5,5,0,0,1,.62,2.47,5.67,5.67,0,0,1-.84,3,5.57,5.57,0,0,1-2.34,2.13,9.22,9.22,0,0,1-4.07.75Zm0-1.67h.93a6.58,6.58,0,0,0,3-.52,3.58,3.58,0,0,0,1.5-1.5,4.4,4.4,0,0,0,.53-2.12,2.91,2.91,0,0,0-.94-2.28q-.94-.84-3.71-.84h-1.3Z" transform="translate(0.5 0)"/><path class="cls-3" d="M132.06,129.58v6.08h-2.17V119H134a9,9,0,0,1,3.73.57,4.06,4.06,0,0,1,1.79,1.68,5,5,0,0,1,.62,2.47,5.67,5.67,0,0,1-.84,3,5.57,5.57,0,0,1-2.34,2.13,9.21,9.21,0,0,1-4.07.75Zm0-1.67H133a6.58,6.58,0,0,0,3-.52,3.6,3.6,0,0,0,1.5-1.5,4.41,4.41,0,0,0,.53-2.12,2.9,2.9,0,0,0-.94-2.28q-.94-.84-3.71-.84h-1.3Z" transform="translate(0.5 0)"/><path class="cls-3" d="M142.55,119h2.17v10.95a8.11,8.11,0,0,0,.36,2.95,2.54,2.54,0,0,0,1.1,1.2,3.54,3.54,0,0,0,3.38,0,2.63,2.63,0,0,0,1.12-1.4,11.73,11.73,0,0,0,.36-3.57V119h2v10.88a7.92,7.92,0,0,1-.69,3.65,4.88,4.88,0,0,1-1.81,2,5.41,5.41,0,0,1-2.81.67,6.23,6.23,0,0,1-2.76-.58,3.93,3.93,0,0,1-1.8-1.74,9.93,9.93,0,0,1-.61-4.19Z" transform="translate(0.5 0)"/><path class="cls-3" d="M156.09,135.31v-2a10.93,10.93,0,0,0,4.67,1.24,4.27,4.27,0,0,0,1.68-.34,2.6,2.6,0,0,0,1.22-1,2.48,2.48,0,0,0,.41-1.38,2.67,2.67,0,0,0-.57-1.63,7.32,7.32,0,0,0-2.13-1.67l-1.09-.63-1.11-.64q-2.93-1.73-2.93-4.3a4.28,4.28,0,0,1,1.3-3.17,5.62,5.62,0,0,1,4.08-1.29,11.83,11.83,0,0,1,3.45.5v1.86a10,10,0,0,0-3.57-.7,3.31,3.31,0,0,0-2.24.73,2.25,2.25,0,0,0-.85,1.77,2.36,2.36,0,0,0,.65,1.7,7.16,7.16,0,0,0,1.67,1.25l.85.51,1,.63.86.52q2.75,1.68,2.75,4.21a4.5,4.5,0,0,1-1.41,3.32,6.24,6.24,0,0,1-4.51,1.38,10.34,10.34,0,0,1-1.88-.17A15.88,15.88,0,0,1,156.09,135.31Z" transform="translate(0.5 0)"/><path class="cls-3" d="M186.38,128.58v-3.73l-2.82,2-1-1.73,3.3-1.61-3.3-1.63,1-1.71,2.82,2V118.5h2v3.74l2.83-2,1,1.7-3.31,1.63,3.31,1.61-1,1.74-2.83-2v3.73Z" transform="translate(0.5 0)"/><path class="cls-3" d="M196.33,136.17h-2L205,118.5h1.9Z" transform="translate(0.5 0)"/></svg>